<?xml version="1.0" encoding="utf-8"?>
<!DOCTYPE svg PUBLIC "-//W3C//DTD SVG 20010904//EN" "http://www.w3.org/TR/2001/REC-SVG-20010904/DTD/svg10.dtd">
<svg version="1.0" xmlns="http://www.w3.org/2000/svg" width="354px" height="354px" viewBox="0 0 354 354" preserveAspectRatio="xMidYMid meet">
 <g fill="#ffffff" fill-opacity="0">
  <path d="M0 177 l0 -177 177 0 177 0 0 177 0 177 -177 0 -177 0 0 -177z m327.2 22.8 c-1.7 -2.9 -11.2 -20.1 -21.1 -38.3 -20.6 -37.7 -19.7 -36.2 -20.3 -35.5 -0.3 0.3 -5.5 10 -11.7 21.5 -8.9 16.8 -11.1 21.7 -10.9 24.4 0.3 3 1.5 1 9.8 -16.2 l9.5 -19.6 3.5 0 3.5 0 13.8 28.2 c7.9 16.2 13.8 29.4 13.7 31 l0 2.7 -140 0 -140 0 0 -2.7 c-0.1 -1.6 5.8 -14.8 13.7 -31 l13.8 -28.2 3.5 0 3.5 0 9.5 19.6 c8.3 17.2 9.5 19.2 9.8 16.2 0.2 -2.7 -2 -7.6 -11 -24.6 -6.2 -11.7 -11.5 -21.3 -11.9 -21.3 -0.3 0 -9.7 16.8 -20.9 37.3 -11.2 20.4 -21 38.2 -21.8 39.5 l-1.4 2.2 153.2 0 153.1 0 -2.9 -5.2z m-183.2 -14.3 l0 -3.5 -11 0 c-15.3 0 -15 0.4 -15 -19 l0 -15 13 0 13 0 0 -3.5 0 -3.5 -13 0 -13 0 0 -3 c0 -2.7 -0.3 -3 -2.9 -3 -2.5 0 -3 0.4 -3.3 2.8 -0.2 2.2 -0.8 2.8 -3.5 3 -3 0.3 -3.3 0.6 -3.3 3.8 0 3.1 0.3 3.4 2.9 3.4 l2.8 0 0.6 13.8 c0.6 15.4 2 20.6 6.9 24.7 2.8 2.3 3.7 2.5 14.4 2.5 l11.4 0 0 -3.5z m20 -14 l0 -17.5 -3.5 0 -3.5 0 -0.1 6.3 c0 3.4 -0.2 10.9 -0.4 16.6 -0.2 5.8 -0.2 10.8 0.1 11.3 0.3 0.4 2.1 0.8 4 0.8 l3.4 0 0 -17.5z m42 14 l0 -3.5 -11.5 0 -11.5 0 -0.2 -23.7 -0.3 -23.8 -3.2 -0.3 -3.3 -0.3 0 27.5 0 27.6 15 0 15 0 0 -3.5z m43 0 l0 -3.5 -11.5 0 -11.5 0 0 -23.5 0 -23.5 -3.5 0 -3.5 0 0 27 0 27 15 0 15 0 0 -3.5z m-85.2 -47.2 c-0.3 -3.5 -0.6 -3.8 -3.5 -4.1 -3.2 -0.3 -3.3 -0.2 -3.3 3.7 0 4 0.1 4.1 3.6 4.1 3.5 0 3.5 -0.1 3.2 -3.7z"/>
 </g>
 <g fill="#1a0801">
  <path d="M177.2 236.8 c-0.7 -0.7 -1.2 -4 -1.2 -7.8 0 -7.3 1 -9 5.1 -9 2.9 0 5.7 2.4 4 3.4 -0.5 0.4 -1.2 0.2 -1.6 -0.4 -0.3 -0.5 -1.7 -1 -3.1 -1 -2.3 0 -2.4 0.2 -2.4 7 0 6.6 0.1 7 2.3 7 1.3 0 2.8 -0.5 3.5 -1.2 0.9 -0.9 1.2 -0.8 1.2 0.4 0 2.7 -5.6 3.8 -7.8 1.6z"/>
  <path d="M190.3 237.3 c-0.7 -0.2 -1.3 -1.7 -1.2 -3.1 0 -2.6 0.1 -2.6 0.9 -0.4 0.6 1.5 1.8 2.2 3.5 2.2 2.4 0 2.5 -0.2 2.5 -7 0 -6.8 -0.1 -7 -2.5 -7 -1.7 0 -2.9 0.8 -3.5 2.3 -0.9 2 -0.9 1.9 -0.7 -0.8 0.2 -2.8 0.5 -3 4.2 -3 l4 0 0.3 7.3 c0.2 4.6 -0.2 7.9 -0.9 8.8 -1.1 1.4 -4.2 1.7 -6.6 0.7z"/>
  <path d="M210.8 237 c-0.4 -0.8 -0.6 -4.5 -0.5 -8.3 0.1 -3.7 -0.1 -6.8 -0.5 -7 -1.1 -0.3 0.9 -7.9 2.4 -8.8 0.7 -0.5 2.2 -0.9 3.3 -0.9 1.7 0 1.7 0.2 -0.5 1.3 -3.5 1.7 -4 6.4 -0.8 7 l2.3 0.4 -2.2 0.8 c-2 0.6 -2.2 1.5 -2.5 8.9 -0.2 4.4 -0.6 7.4 -1 6.6z"/>
  <path d="M219.2 236.8 c-0.7 -0.7 -1.2 -4.1 -1.2 -8.4 0 -7.6 0.5 -8.4 5.4 -8.4 3 0 4.6 1.8 4.6 5.2 0 2.6 -0.3 2.8 -4 2.8 l-4 0 0 4 c0 3.5 0.3 4 2.3 4 1.3 0 2.8 -0.5 3.5 -1.2 0.6 -0.6 1.5 -0.8 1.9 -0.4 1.1 1.1 -2.6 3.6 -5.2 3.6 -1.2 0 -2.6 -0.5 -3.3 -1.2z m6.8 -12.3 c0 -2.1 -0.5 -2.5 -3 -2.5 -2.5 0 -3 0.4 -3 2.5 0 2.1 0.5 2.5 3 2.5 2.5 0 3 -0.4 3 -2.5z"/>
  <path d="M232.2 236.8 c-0.7 -0.7 -1.2 -4 -1.2 -7.8 0 -7.2 1 -9 5 -9 3.4 0 5 1.7 5 5.2 0 2.6 -0.3 2.8 -4 2.8 l-4 0 0 4 c0 3.5 0.3 4 2.3 4 1.3 0 2.8 -0.5 3.5 -1.2 0.6 -0.6 1.5 -0.8 1.9 -0.4 1.1 1.1 -2.6 3.6 -5.2 3.6 -1.2 0 -2.6 -0.5 -3.3 -1.2z m6.8 -12.3 c0 -2.1 -0.5 -2.5 -3 -2.5 -2.5 0 -3 0.4 -3 2.5 0 2.1 0.5 2.5 3 2.5 2.5 0 3 -0.4 3 -2.5z"/>
  <path d="M250 229.5 l0 -9 3.5 -0.2 c3.8 -0.3 4.9 1.4 1.3 1.9 -2.1 0.3 -2.3 0.9 -2.6 7.3 -0.5 10.6 -2.2 10.6 -2.2 0z"/>
  <path d="M261.2 236.8 c-0.7 -0.7 -1.2 -4 -1.2 -7.8 0 -7.2 1 -9 5 -9 4 0 5 1.8 5 9.2 0 5.6 -0.3 6.9 -1.9 7.8 -2.6 1.3 -5.4 1.3 -6.9 -0.2z m6.6 -8 l0.3 -6.8 -3.1 0 -3 0 0 7.1 0 7 2.8 -0.3 c2.6 -0.3 2.7 -0.5 3 -7z"/>
  <path d="M274.2 236.8 c-3.1 -3.1 -0.6 -8.7 4.6 -10.3 3.2 -0.9 2.5 -3.9 -1.1 -4.3 -1.5 -0.2 -2.7 0.2 -2.7 0.8 0 0.6 -0.5 0.8 -1 0.5 -2 -1.3 1.2 -3.6 4.4 -3.3 l3.1 0.3 0.5 8.3 c0.3 4.6 0.2 8.6 -0.2 8.9 -0.5 0.2 -0.8 -0.1 -0.8 -0.8 0 -1 -0.3 -1 -1.2 -0.1 -0.7 0.7 -1.9 1.2 -2.8 1.2 -0.9 0 -2.1 -0.5 -2.8 -1.2z m5.6 -2 c1.5 -1.5 1.6 -6.8 0.1 -6.8 -2.7 0 -4.9 2.2 -4.9 5 0 3.2 2.5 4.1 4.8 1.8z"/>
  <path d="M286 236.5 c-0.7 -0.9 -0.9 -1.9 -0.5 -2.3 0.4 -0.4 1 -0.1 1.2 0.6 0.3 0.6 1.6 1.2 2.9 1.2 3.8 0 3.2 -4.3 -1.1 -7.6 -3.8 -2.9 -4.3 -5.9 -1.4 -7.7 2.2 -1.4 6.9 0 6.9 2 0 1.3 -0.3 1.4 -1.2 0.5 -1.7 -1.7 -5.8 -1.5 -5.8 0.3 0 0.8 1.6 2.9 3.5 4.6 3.6 3.3 4.4 6.6 2.3 8.7 -1.7 1.7 -5.3 1.5 -6.8 -0.3z"/>
  <path d="M298.6 236.5 c-1.1 -1.2 -1.6 -3.5 -1.6 -7.9 0 -3.5 -0.5 -6.7 -1.2 -7.4 -0.9 -0.9 -0.9 -1.2 0 -1.2 0.7 0 1.2 -0.9 1.2 -2 0 -1.1 0.5 -2 1 -2 0.6 0 1 0.9 1 2 0 1.1 0.7 2 1.5 2 0.8 0 1.5 0.5 1.5 1 0 0.6 -0.7 1 -1.5 1 -1.2 0 -1.5 1.4 -1.5 6.3 0 3.5 0.5 6.8 1.2 7.5 0.6 0.6 0.9 1.4 0.6 1.7 -0.3 0.3 -1.3 -0.1 -2.2 -1z"/>
  <path d="M305.6 236.4 c-1.9 -1.8 -2.2 -11.4 -0.6 -14.5 0.6 -1 2.1 -1.9 3.5 -1.9 4.2 0 5.5 1 5.5 4.5 0 3.2 -0.2 3.4 -3.7 3.7 -3.6 0.3 -3.8 0.5 -3.8 3.8 0 2.9 0.4 3.6 2.4 3.8 1.3 0.2 2.7 -0.2 3.2 -0.9 0.4 -0.8 1.1 -1 1.5 -0.6 1.2 1.1 -1.7 3.7 -4.2 3.7 -1.2 0 -3 -0.7 -3.8 -1.6z m6.4 -11.9 c0 -2 -0.5 -2.5 -2.4 -2.5 -1.4 0 -2.8 0.5 -3.1 1 -1.2 1.9 0.4 4 3 4 2 0 2.5 -0.5 2.5 -2.5z"/>
  <path d="M318 229.5 l0 -9 3.5 -0.2 c3.8 -0.3 4.9 1.4 1.3 1.9 -2.1 0.3 -2.3 0.9 -2.6 7.3 -0.5 10.6 -2.2 10.6 -2.2 0z"/>
  <path d="M328 236.5 c-0.7 -0.9 -0.9 -1.9 -0.5 -2.3 0.4 -0.4 1 -0.1 1.2 0.6 0.3 0.6 1.6 1.2 2.9 1.2 3.7 0 3.1 -4 -1.2 -7.8 -3.7 -3.3 -4.1 -5.7 -1.3 -7.5 2.2 -1.4 6.9 0 6.9 2 0 1.3 -0.3 1.4 -1.2 0.5 -1.6 -1.6 -5.8 -1.5 -5.8 0.1 0 0.7 1.6 2.8 3.5 4.7 3.6 3.5 4.4 6.7 2.3 8.8 -1.7 1.7 -5.3 1.5 -6.8 -0.3z"/>
  <path d="M203.1 223.3 c-0.1 -1.4 -0.8 -2.3 -1.8 -2.4 -1.1 0 -1.3 -0.3 -0.5 -0.6 0.6 -0.2 1.2 -1.7 1.2 -3.2 0 -3.4 1.7 -5.1 5 -5 l2.5 0.1 -2.7 1 c-2.2 0.7 -2.8 1.6 -2.8 3.9 0 1.9 0.5 2.9 1.5 2.9 0.8 0 1.5 0.5 1.5 1 0 0.6 -0.6 1 -1.4 1 -0.8 0 -1.7 0.8 -1.9 1.8 -0.4 1.3 -0.5 1.1 -0.6 -0.5z"/>
  <path d="M23.2 198.2 c20 -37.1 44.4 -81.1 44.8 -81.1 0.3 0 6.2 10.9 13.3 24.2 l12.7 24.2 0 10.7 c0 6.8 -0.4 10.8 -1 10.8 -0.6 0 -6.4 -10.8 -12.8 -24 -6.4 -13.1 -11.9 -23.9 -12.2 -23.9 -0.3 0 -6.7 12.6 -14.2 28 l-13.8 27.9 137 0 137 0 -13.8 -27.9 c-7.5 -15.4 -13.9 -28 -14.2 -28 -0.3 0 -6.1 11.7 -13 25.9 -6.9 14.2 -12.7 25.9 -13 25.9 -0.3 0.1 -0.4 -5.7 -0.2 -12.8 l0.4 -12.9 12.6 -24.1 c7 -13.2 12.9 -24 13.2 -24.1 0.3 0 5.6 9.4 11.8 20.8 6.1 11.4 17.3 31.7 24.7 45.1 7.4 13.5 13.5 24.6 13.5 24.8 0 0.2 -71.6 0.3 -159.1 0.3 l-159 0 5.3 -9.8z"/>
  <path d="M115.2 189.5 c-4.9 -4.1 -6.3 -9.3 -6.9 -24.7 l-0.6 -13.8 -2.8 0 c-2.9 0 -2.9 0 -2.9 -6.4 l0 -6.5 3.3 -0.3 c2.8 -0.3 3.2 -0.6 2.9 -3 l-0.3 -2.8 6.5 0 6.6 0 0 3 0 3 13 0 13 0 0 6.5 0 6.5 -13 0 -13 0 0 12 c0 16 0 16 15 16 l11 0 0 6.5 0 6.5 -14.4 0 c-13.9 0 -14.6 -0.1 -17.4 -2.5z"/>
  <path d="M153.4 190.7 c-0.2 -0.7 -0.3 -9.9 -0.1 -20.3 l0.5 -18.9 6.6 -0.3 6.6 -0.3 0 20.6 0 20.5 -6.5 0 c-4.5 0 -6.7 -0.4 -7.1 -1.3z"/>
  <path d="M173 161.5 l0 -30.6 6.3 0.3 6.2 0.3 0.3 23.8 0.2 23.7 11.5 0 11.5 0 0 6.5 0 6.5 -18 0 -18 0 0 -30.5z"/>
  <path d="M216 162 l0 -30 6.5 0 6.5 0 0 23.5 0 23.5 11.5 0 11.5 0 0 6.5 0 6.5 -18 0 -18 0 0 -30z"/>
  <path d="M284.2 190.3 c-2 -1.8 -2 -1.8 2.5 -4.1 3.5 -1.7 4.4 -1.9 3.9 -0.7 -1 2.8 1.4 1.5 3.5 -1.7 1.5 -2.5 1.9 -4.5 1.6 -8 -0.4 -5.3 0.2 -5.9 3.2 -2.7 4.3 4.6 3.4 11.8 -2 16.4 -3.7 3 -9.6 3.4 -12.7 0.8z"/>
  <path d="M153.7 144.3 c-0.3 -0.5 -0.4 -3.5 -0.3 -6.8 l0.1 -6 6.5 0 6.5 0 0.3 6.8 0.3 6.7 -6.5 0 c-3.6 0 -6.7 -0.3 -6.9 -0.7z"/>
 </g>
 <g fill="#0c0000">
  <path d="M177.5 237 c-0.3 -0.5 0.3 -1 1.5 -1 1.2 0 1.8 0.5 1.5 1 -0.3 0.6 -1 1 -1.5 1 -0.5 0 -1.2 -0.4 -1.5 -1z"/>
  <path d="M202 230.2 c0 -4.7 -0.5 -8.3 -1.2 -9 -0.9 -0.9 -0.9 -1.2 0 -1.2 0.7 0 1.2 -1.3 1.2 -2.9 0 -2.9 2.5 -6 3.7 -4.7 0.4 0.4 0.3 1 -0.3 1.4 -2 1.4 -2.3 4.1 -0.6 5.8 1.2 1.3 1.3 1.9 0.4 2.2 -0.8 0.2 -1.2 2.9 -1.2 8.3 0 4.6 -0.4 7.9 -1 7.9 -0.6 0 -1 -3.3 -1 -7.8z"/>
  <path d="M182 236.6 c0 -0.2 0.7 -0.9 1.5 -1.6 1.2 -1 1.5 -1 1.5 0.4 0 0.9 -0.7 1.6 -1.5 1.6 -0.8 0 -1.5 -0.2 -1.5 -0.4z"/>
  <path d="M189.4 235.7 c-0.3 -0.8 -0.4 -4.5 -0.2 -8.3 l0.3 -6.9 4 0 4 0 0 7.9 c0 6.2 -0.3 8 -1.5 8.3 -1 0.3 -1.1 0.2 -0.3 -0.4 0.7 -0.5 1.1 -3.4 1 -7.5 -0.2 -5.8 -0.5 -6.7 -2.2 -7 -1.2 -0.3 -2.6 -0.3 -3.3 0 -1.7 0.5 -1.6 13.9 0.1 14.5 0.9 0.4 0.9 0.6 -0.1 0.6 -0.7 0.1 -1.5 -0.5 -1.8 -1.2z"/>
  <path d="M232.4 235.8 c-1.1 -1.8 -1.2 -4.8 -0.2 -4.8 0.5 0 0.8 0.8 0.6 1.8 -0.1 0.9 0.1 2.3 0.5 3 0.5 0.6 0.6 1.2 0.3 1.2 -0.3 0 -0.8 -0.6 -1.2 -1.2z"/>
  <path d="M273.4 235.6 c-1 -2.7 0.1 -5.9 2.6 -7.3 l2.5 -1.5 -2.2 2 c-2.5 2.2 -3.1 6.7 -1 7.5 0.9 0.4 0.9 0.6 -0.1 0.6 -0.7 0.1 -1.5 -0.5 -1.8 -1.3z"/>
  <path d="M305.4 235.5 c-0.3 -0.8 -0.4 -2 -0.1 -2.7 0.3 -0.7 0.6 -0.3 0.6 0.9 0.1 1.2 0.7 2.4 1.4 2.6 0.9 0.4 0.9 0.6 -0.1 0.6 -0.7 0.1 -1.5 -0.6 -1.8 -1.4z"/>
  <path d="M268.3 230 c0 -3.6 0.2 -5 0.4 -3.2 0.2 1.7 0.2 4.7 0 6.5 -0.2 1.7 -0.4 0.3 -0.4 -3.3z"/>
  <path d="M176.2 229 c-0.2 -6.7 0.8 -9.1 3.8 -8.9 1 0 0.9 0.3 -0.5 0.8 -1.6 0.7 -2.1 2 -2.6 7.7 l-0.5 6.9 -0.2 -6.5z"/>
  <path d="M211.3 230 c0 -2.5 0.2 -3.5 0.4 -2.2 0.2 1.2 0.2 3.2 0 4.5 -0.2 1.2 -0.4 0.2 -0.4 -2.3z"/>
  <path d="M250.1 228.3 c-0.1 -3.5 0.3 -6.3 0.8 -6.3 0.4 0 0.6 2.4 0.4 5.3 -0.7 7.7 -1.1 8.1 -1.2 1z"/>
  <path d="M318.2 227.1 c-0.1 -4.1 0.2 -7.1 0.6 -6.5 0.5 0.5 0.6 3.8 0.2 7.4 l-0.7 6.5 -0.1 -7.4z"/>
  <path d="M298.3 229.5 c0 -2.2 0.2 -3 0.4 -1.7 0.2 1.2 0.2 3 0 4 -0.3 0.9 -0.5 -0.1 -0.4 -2.3z"/>
  <path d="M260.3 227.5 c0 -2.7 0.2 -3.8 0.4 -2.2 0.2 1.5 0.2 3.7 0 5 -0.2 1.2 -0.4 0 -0.4 -2.8z"/>
  <path d="M331.2 228.4 c-2.6 -1.8 -4.8 -5.4 -3.2 -5.4 0.5 0 1 0.6 1 1.4 0 0.8 1.2 2.4 2.8 3.5 3.1 2.4 2.7 2.8 -0.6 0.5z"/>
  <path d="M225.9 224.8 c-0.3 -2.2 -0.1 -3.4 0.4 -2.9 0.5 0.5 0.7 2.1 0.5 3.7 -0.3 2.7 -0.4 2.6 -0.9 -0.8z"/>
  <path d="M238.8 225.5 c0.2 -1.4 -0.2 -3.3 -0.9 -4.3 -1.3 -1.5 -1.2 -1.6 0.4 -0.3 1.7 1.4 2.4 7.1 0.8 7.1 -0.4 0 -0.6 -1.1 -0.3 -2.5z"/>
  <path d="M305 225.2 c0 -3.3 1.6 -5.2 4.5 -5.1 1.7 0.1 1.6 0.2 -0.5 0.8 -1.7 0.5 -2.6 1.5 -2.8 3.3 -0.3 2.2 0.1 2.7 2.5 3.1 2.7 0.4 2.7 0.4 -0.4 0.6 -3 0.1 -3.3 -0.2 -3.3 -2.7z"/>
  <path d="M312.5 224.6 c0 -1.9 0.3 -3.2 0.8 -2.9 0.4 0.2 0.7 1.7 0.7 3.4 0 1.6 -0.3 2.9 -0.7 2.9 -0.5 0 -0.8 -1.5 -0.8 -3.4z"/>
  <path d="M280.9 224.2 c-0.3 -2 -0.2 -2.9 0.4 -2.3 0.5 0.5 0.7 1.9 0.5 3.2 -0.3 2 -0.5 1.9 -0.9 -0.9z"/>
  <path d="M218.9 221.8 c0.7 -1 2.3 -1.7 3.5 -1.7 2 0.1 2 0.2 0.1 0.6 -1.1 0.3 -2.7 1 -3.5 1.7 -1.3 1 -1.3 0.9 -0.1 -0.6z"/>
  <path d="M262 221 c0.8 -0.5 2.4 -1 3.4 -1 2.6 0 1.8 0.6 -1.9 1.4 -2.2 0.5 -2.6 0.4 -1.5 -0.4z"/>
  <path d="M211.1 217 c-0.1 -3.1 1.6 -5 4.4 -4.9 1.7 0.1 1.6 0.2 -0.5 0.8 -1.7 0.5 -2.7 1.6 -3.1 3.6 -0.6 2.8 -0.7 2.8 -0.8 0.5z"/>
  <path d="M77.3 195.3 c0.9 -0.2 2.5 -0.2 3.5 0 0.9 0.3 0.1 0.5 -1.8 0.5 -1.9 0 -2.7 -0.2 -1.7 -0.5z"/>
  <path d="M233.8 195.3 c1.2 -0.2 3.2 -0.2 4.5 0 1.2 0.2 0.2 0.4 -2.3 0.4 -2.5 0 -3.5 -0.2 -2.2 -0.4z"/>
  <path d="M238 191 c0 -0.5 0.9 -1 2 -1 1.1 0 2 0.5 2 1 0 0.6 -0.9 1 -2 1 -1.1 0 -2 -0.4 -2 -1z"/>
  <path d="M248.2 190.8 c0.7 -1.9 3.8 -2.2 3.8 -0.4 0 1 -0.9 1.6 -2.1 1.6 -1.2 0 -1.9 -0.5 -1.7 -1.2z"/>
  <path d="M91 184.8 c-3.2 -8.1 -3.4 -8.9 -1.5 -5.5 0.9 1.5 2.2 2.7 2.9 2.7 0.9 0 1.5 1.5 1.8 4.5 0.2 2.5 0.1 4.5 -0.2 4.5 -0.3 0 -1.6 -2.8 -3 -6.2z"/>
  <path d="M259.7 186.8 c0.7 -5.1 0.5 -4.9 2.2 -3.9 1 0.7 1 1.5 -0.3 4.5 -2 4.7 -2.5 4.6 -1.9 -0.6z"/>
  <path d="M307.2 180.5 c-1.7 -3.7 -1.4 -4.5 0.4 -1.2 0.9 1.6 1.4 3.1 1.1 3.3 -0.2 0.2 -0.9 -0.7 -1.5 -2.1z"/>
  <path d="M300.7 167.7 c-2.2 -5.4 -2.3 -7.4 -0.2 -5.7 0.8 0.7 1.5 1.9 1.5 2.6 0 0.8 0.6 2.3 1.2 3.4 0.8 1.3 0.9 2.3 0.3 2.9 -0.7 0.7 -1.6 -0.4 -2.8 -3.2z"/>
  <path d="M78.1 158.4 c-1.2 -2.6 -1.9 -4.9 -1.7 -5.1 0.2 -0.3 1.4 1.7 2.5 4.3 1.2 2.6 1.9 4.9 1.7 5.1 -0.2 0.3 -1.4 -1.7 -2.5 -4.3z"/>
 </g>
</svg>